# xmcd
#
# Track frame offsets: 
#        150
#        3610
#        13607
#        24908
#        43192
#        62860
#        81834
#        96977
#        117343
#        135997
#        156030
#        170967
#        186784
#        204376
#        219348
#        238759
#        255562
#        277682
#        290256
#        305823
#
# Disc length: 4309 seconds
#
# Revision: 0
# Processed by: cddbd v1.5.2PL0 Copyright (c) Steve Scherf et al.
# Submitted via: ExactAudioCopy v1.0b4
#
DISCID=1710d314
DTITLE=Ski King - Sketchbook III
DYEAR=2015
DGENRE=Country
TTITLE0=Intro
TTITLE1=have you ever seen the rain
TTITLE2=Unknown Stuntman
TTITLE3=Litle Girl
TTITLE4=The number of the beast
TTITLE5=Death Is not the End
TTITLE6=Rad Light
TTITLE7=Hallelujah
TTITLE8=Still Counting
TTITLE9=Tears in heaven
TTITLE10=Stand by me
TTITLE11=Stone in my hand
TTITLE12=Summer Wine
TTITLE13=Creep
TTITLE14=Thunder Rolls
TTITLE15=51st State of America
TTITLE16=Wish you were here
TTITLE17=Some Velvet Morning
TTITLE18=Christine
TTITLE19=If you could read my mind
EXTD=
EXTT0=
EXTT1=
EXTT2=
EXTT3=
EXTT4=
EXTT5=
EXTT6=
EXTT7=
EXTT8=
EXTT9=
EXTT10=
EXTT11=
EXTT12=
EXTT13=
EXTT14=
EXTT15=
EXTT16=
EXTT17=
EXTT18=
EXTT19=
PLAYORDER=
